{"title":"Clive Barker/Stephen King, Quicksilver Highway [1997] - DVDRip","uid":4781217,"size":733792256,"categoryP":"video","categoryS":"movies","magnet":"?xt=urn:btih:febcbc7fc487fefb95361ddab171978bc770d5b8&amp;dn=Clive+Barker%2FStephen+King%2C+Quicksilver+Highway+%5B1997%5D+-+DVDRip&amp;tr=udp%3A%2F%2Ftracker.openbittorrent.com%3A80&amp;tr=udp%3A%2F%2Fopen.demonii.com%3A1337&amp;tr=udp%3A%2F%2Ftracker.coppersurfer.tk%3A6969&amp;tr=udp%3A%2F%2Fexodus.desync.com%3A6969","seeders":2,"leechers":1,"uploader":"akhiugo","files":-1,"time":1237392000,"description":"This film is actually two one hour stories.\n\nQuicksilver Highway is a 1997 horror film directed by Mick Garris. It is based on Clive Barker's short story The Body Politic and Stephen King's short story Chattery Teeth.\n\nThe main story is centered on Aaron Quicksilver (played by Christopher Lloyd), a travelling showman who tells horror stories to the people he meets. He first runs into a newly married couple who are hitchhiking, to whom he tells the story Chattery Teeth, about a man who is saved from a dangerous hitchhiker by a set of wind-up toy teeth. He later runs into a pickpocket to whom he tells the story The Body Politic, a story about a man whose hands rebel against him.\n\n-------------------------------------------------------------------------------\n\nGeneral\nComplete name                    : Quicksilver Highway (1997) DVDRip VideoVault.avi\nFormat                           : AVI\nFormat/Info                      : Audio Video Interleave\nFile size                        : 700 MiB\nDuration                         : 1h 30mn\nOverall bit rate                 : 1 083 Kbps\nWriting application              : VirtualDubMod 1.5.4.1 (build 2178/release)\nWriting library                  : VirtualDubMod build 2178/release\n\nVideo\nFormat                           : MPEG-4 Visual\nFormat profile                   : Streaming Video@L1\nFormat settings, BVOP            : Yes\nFormat settings, QPel            : No\nFormat settings, GMC             : No warppoints\nFormat settings, Matrix          : Custom\nCodec ID                         : XVID\nCodec ID/Hint                    : XviD\nDuration                         : 1h 30mn\nBit rate                         : 941 Kbps\nWidth                            : 640 pixels\nHeight                           : 480 pixels\nDisplay aspect ratio             : 4/3\nFrame rate                       : 25.000 fps\nResolution                       : 24 bits\nColorimetry                      : 4:2:0\nScan type                        : Progressive\nBits/(Pixel*Frame)               : 0.123\nStream size                      : 608 MiB (87%)\nWriting library                  : XviD 1.0.1 (UTC 2004-06-05)\n\nAudio\nFormat                           : MPEG Audio\nFormat version                   : Version 1\nFormat profile                   : Layer 3\nCodec ID                         : 55\nCodec ID/Hint                    : MP3\nDuration                         : 1h 30mn\nBit rate mode                    : Variable\nBit rate                         : 128 Kbps\nChannel(s)                       : 2 channels\nSampling rate                    : 48.0 KHz\nResolution                       : 16 bits\nStream size                      : 83.1 MiB (12%)\nAlignment                        : Aligned on interleaves\nInterleave, duration             : 24 ms (0.60 video frame)\nInterleave, preload duration     : 483 ms\nWriting library                  : LAME3.90.\nEncoding settings                : ABR\nLanguage                         : English\n\n---------------------------------------------------------------------------------\n\n\nPlease help your fellow pirates by seeding after download!","torrent":{"xt":"urn:btih:febcbc7fc487fefb95361ddab171978bc770d5b8","amp;dn":"Clive+Barker%2FStephen+King%2C+Quicksilver+Highway+%5B1997%5D+-+DVDRip","amp;tr":["udp%3A%2F%2Ftracker.openbittorrent.com%3A80","udp%3A%2F%2Fopen.demonii.com%3A1337","udp%3A%2F%2Ftracker.coppersurfer.tk%3A6969","udp%3A%2F%2Fexodus.desync.com%3A6969"],"infoHash":"febcbc7fc487fefb95361ddab171978bc770d5b8","infoHashBuffer":{"type":"Buffer","data":[254,188,188,127,196,135,254,251,149,54,29,218,177,113,151,139,199,112,213,184]},"announce":[],"urlList":[]}}